<svg width="24" height="23" viewBox="0 0 24 23" fill="none" xmlns="http://www.w3.org/2000/svg">
<path d="M23.8062 11.4376L17.0631 12.6973L22.2736 17.159L15.804 14.8723L18.0906 21.3419L13.629 16.1314L12.3692 22.8745L11.1088 16.1314L6.64721 21.3419L8.93382 14.8723L2.46422 17.159L7.67538 12.6973L0.931641 11.4376L7.67538 10.1772L2.46422 5.71557L8.93382 8.00218L6.64721 1.53258L11.1088 6.74374L12.3692 0L13.629 6.74374L18.0906 1.53258L15.804 8.00218L22.2736 5.71557L17.0631 10.1772L23.8062 11.4376Z" fill="white" fill-opacity="0.8"/>
<path d="M9.0115 7.8956C9.41231 7.74767 9.75303 7.48425 9.98832 7.14038C10.2236 6.79651 10.3423 6.3885 10.3286 5.97064C10.315 5.55278 10.1696 5.14488 9.91178 4.80122C9.654 4.45757 9.29605 4.19445 8.88557 4.04687C8.4751 3.8993 8.03155 3.87427 7.61396 3.97511C7.19637 4.07595 6.82453 4.29789 6.54792 4.61138C6.27131 4.92488 6.10304 5.31508 6.06552 5.73005C6.02799 6.14502 6.12297 6.56509 6.33783 6.93436L6.15898 6.87006C5.89099 6.77371 5.59753 6.7827 5.34315 6.89505C5.08876 7.00739 4.8943 7.2139 4.80254 7.46913C4.71078 7.72436 4.72924 8.00741 4.85385 8.25601C4.97846 8.50461 5.19902 8.69841 5.46701 8.79475L5.71963 8.88557L5.02766 10.8103C5.02766 10.8103 4.94116 11.0509 4.60205 11.2006L3.22866 11.8072C2.21607 12.2544 1.95148 13.3601 2.3756 14.2037C1.97403 14.0608 1.53493 14.0753 1.1545 14.2441C0.774066 14.4129 0.48333 14.7221 0.34599 15.1042L6.04553e-06 16.0665L8.08366 18.9727L8.42964 18.0104C8.56698 17.6284 8.53973 17.2048 8.35386 16.8324C8.16798 16.46 7.83863 16.1693 7.43798 16.0238C8.30169 15.6431 8.80223 14.6222 8.3062 13.6327L7.63342 12.2905C7.4673 11.9591 7.5538 11.7185 7.5538 11.7185L8.24577 9.79378L8.49838 9.8846C8.76637 9.98094 9.05984 9.97196 9.31422 9.85961C9.5686 9.74726 9.76306 9.54076 9.85482 9.28553C9.94658 9.0303 9.92813 8.74725 9.80352 8.49865C9.6789 8.25004 9.45834 8.05625 9.19035 7.9599L9.0115 7.8956Z" fill="#70AD46"/>
<path d="M17.4703 6.93489C17.6852 6.56564 17.7802 6.14557 17.7427 5.7306C17.7052 5.31563 17.537 4.92542 17.2604 4.6119C16.9838 4.29838 16.612 4.07642 16.1944 3.97554C15.7768 3.87466 15.3333 3.89966 14.9228 4.0472C14.5123 4.19474 14.1543 4.45784 13.8965 4.80147C13.6387 5.14511 13.4933 5.55299 13.4796 5.97085C13.4659 6.38871 13.5845 6.79673 13.8198 7.14062C14.0551 7.48451 14.3958 7.74796 14.7966 7.89592L14.6177 7.96021C14.3497 8.05653 14.1291 8.25031 14.0045 8.4989C13.8799 8.74749 13.8614 9.03054 13.9531 9.28578C14.0449 9.54102 14.2393 9.74754 14.4937 9.8599C14.7481 9.97227 15.0415 9.98128 15.3095 9.88496L15.5621 9.79416L16.254 11.7189C16.254 11.7189 16.3404 11.9595 16.1743 12.2909L15.5014 13.633C15.0053 14.6226 15.5052 15.6437 16.3694 16.0242C15.9688 16.1697 15.6394 16.4604 15.4535 16.8328C15.2676 17.2051 15.2403 17.6287 15.3776 18.0108L15.7235 18.9731L23.8074 16.0675L23.4615 15.1052C23.3242 14.7231 23.0335 14.4138 22.6531 14.245C22.2726 14.0762 21.8335 14.0617 21.432 14.2046C21.8556 13.3612 21.5916 12.2552 20.5791 11.808L19.2057 11.2013C18.8666 11.0515 18.7802 10.8109 18.7802 10.8109L18.0884 8.88616L18.341 8.79536C18.609 8.69903 18.8296 8.50526 18.9542 8.25666C19.0788 8.00807 19.0973 7.72502 19.0056 7.46978C18.9138 7.21455 18.7194 7.00803 18.465 6.89566C18.2106 6.78329 17.9172 6.77428 17.6492 6.87061L17.4703 6.93489Z" fill="#70AD46"/>
</svg>
