<svg width="432" height="392" viewBox="0 0 432 392" fill="none" xmlns="http://www.w3.org/2000/svg">
<path d="M371.419 344.608C404.876 344.608 431.998 317.486 431.998 284.029C431.998 250.572 404.876 223.449 371.419 223.449C337.962 223.449 310.84 250.572 310.84 284.029C310.84 317.486 337.962 344.608 371.419 344.608Z" fill="#22C55E"/>
<path d="M395.951 315.109L382.703 294.808H401.728V287.138H339.338V294.808H358.363L345.115 315.109H354.974L370.533 291.274L386.092 315.109H395.951ZM401.728 279.694V272.025H383.088L396.182 251.949H386.246L370.533 276.161L354.82 251.949H344.884L357.978 272.025H339.338V279.77L401.728 279.694Z" fill="white"/>
<path d="M60.5793 344.606C94.0363 344.606 121.159 317.484 121.159 284.027C121.159 250.57 94.0363 223.447 60.5793 223.447C27.1223 223.447 0 250.57 0 284.027C0 317.484 27.1223 344.606 60.5793 344.606Z" fill="#22C55E"/>
<path d="M77.4067 256.48L65.6744 274.627C64.8631 275.863 66.4232 277.359 67.5465 276.318L79.0916 265.846C79.4036 265.586 79.8405 265.781 79.8405 266.237V298.953C79.8405 299.408 79.2788 299.604 79.0292 299.278L44.0819 255.7C42.9586 254.269 41.3361 253.488 39.5263 253.488H38.2782C35.0331 253.488 32.3496 256.285 32.3496 259.732V305.783C32.3496 309.23 35.0331 312.027 38.3406 312.027C40.4 312.027 42.3345 310.921 43.4579 309.035L55.1902 290.888C56.0014 289.652 54.4413 288.156 53.318 289.197L41.7729 299.604C41.4609 299.864 41.024 299.669 41.024 299.213V266.562C41.024 266.107 41.5857 265.911 41.8353 266.237L76.7826 309.815C77.9059 311.246 79.5909 312.027 81.3382 312.027H82.5863C85.8939 312.027 88.5773 309.23 88.5773 305.783V259.732C88.5773 256.285 85.8939 253.488 82.5863 253.488C80.4645 253.488 78.53 254.594 77.4067 256.48Z" fill="white"/>
<path d="M212.523 121.159C245.98 121.159 273.102 94.0363 273.102 60.5793C273.102 27.1223 245.98 0 212.523 0C179.066 0 151.943 27.1223 151.943 60.5793C151.943 94.0363 179.066 121.159 212.523 121.159Z" fill="#22C55E"/>
<path d="M190.26 73.8353C190.65 73.478 191.187 73.2695 191.756 73.2695H243.388C244.331 73.2695 244.803 74.3117 244.136 74.9222L233.937 84.2574C233.546 84.6147 233.009 84.8232 232.44 84.8232H180.809C179.865 84.8232 179.393 83.781 180.06 83.1705L190.26 73.8353Z" fill="white"/>
<path d="M190.26 35.3236C190.666 34.9663 191.203 34.7578 191.756 34.7578H243.388C244.331 34.7578 244.803 35.8 244.136 36.4105L233.937 45.7457C233.546 46.103 233.009 46.3114 232.44 46.3114H180.809C179.865 46.3114 179.393 45.2692 180.06 44.6588L190.26 35.3236Z" fill="white"/>
<path d="M233.937 53.1516C233.546 52.7228 233.009 52.4727 232.44 52.4727H180.809C179.865 52.4727 179.393 53.7233 180.06 54.4558L190.26 65.6581C190.65 66.0869 191.187 66.337 191.756 66.337H243.388C244.331 66.337 244.803 65.0864 244.136 64.3538L233.937 53.1516Z" fill="white"/>
<path fill-rule="evenodd" clip-rule="evenodd" d="M143.961 61.6172C143.962 61.6638 143.963 61.7104 143.964 61.757L143.913 61.6382C143.929 61.6312 143.945 61.6242 143.961 61.6172ZM280.234 61.6172C280.233 61.6638 280.231 61.7105 280.23 61.7571L280.282 61.6382C280.266 61.6312 280.25 61.6242 280.234 61.6172ZM383.475 218.31C382.53 218.129 381.578 217.968 380.619 217.827C380.616 217.421 380.611 217.016 380.604 216.611L382.03 216.588L383.455 216.565C383.465 217.146 383.471 217.727 383.475 218.31ZM329.906 340.261C330.678 340.84 331.464 341.403 332.262 341.949C331.937 342.27 331.61 342.589 331.283 342.907L330.291 341.88L329.299 340.852C329.502 340.656 329.704 340.459 329.906 340.261ZM381.851 211.02L383.275 210.951C383.184 209.068 383.064 207.194 382.913 205.328L381.492 205.443L380.071 205.559C380.219 207.394 380.338 209.237 380.427 211.089L381.851 211.02ZM380.953 199.894L382.37 199.732C382.158 197.865 381.916 196.006 381.645 194.157L380.234 194.365L378.824 194.573C379.09 196.391 379.328 198.219 379.536 200.056L380.953 199.894ZM379.334 188.855L380.737 188.601C380.403 186.752 380.041 184.913 379.649 183.086L378.255 183.386L376.861 183.687C377.246 185.484 377.603 187.292 377.931 189.11L379.334 188.855ZM376.997 177.953L378.38 177.607C377.926 175.783 377.443 173.97 376.931 172.169L375.56 172.561L374.188 172.953C374.692 174.724 375.167 176.506 375.613 178.3L376.997 177.953ZM373.948 167.225L375.305 166.788C374.733 165 374.132 163.224 373.503 161.462L372.161 161.943L370.818 162.425C371.436 164.158 372.027 165.904 372.59 167.663L373.948 167.225ZM370.2 156.721L371.526 156.195C370.837 154.449 370.121 152.718 369.378 151L368.07 151.57L366.762 152.139C367.493 153.828 368.197 155.53 368.874 157.247L370.2 156.721ZM365.772 146.491L367.06 145.878C366.259 144.181 365.43 142.499 364.575 140.833L363.307 141.488L362.04 142.142C362.88 143.78 363.695 145.434 364.483 147.103L365.772 146.491ZM360.682 136.571L361.927 135.875C361.017 134.236 360.081 132.613 359.119 131.007L357.897 131.743L356.674 132.479C357.62 134.059 358.541 135.655 359.436 137.267L360.682 136.571ZM354.954 127.007L356.152 126.231C355.137 124.655 354.097 123.097 353.032 121.557L351.86 122.372L350.689 123.187C351.736 124.701 352.759 126.234 353.757 127.783L354.954 127.007ZM348.617 117.841L349.762 116.988C348.646 115.482 347.507 113.994 346.344 112.527L345.227 113.416L344.111 114.306C345.255 115.749 346.376 117.212 347.473 118.693L348.617 117.841ZM341.696 109.106L342.783 108.18C341.573 106.751 340.339 105.341 339.084 103.952L338.028 104.913L336.971 105.874C338.206 107.24 339.419 108.626 340.61 110.032L341.696 109.106ZM334.224 100.842L335.249 99.8471C333.948 98.4997 332.626 97.1736 331.283 95.8694L330.291 96.8969L329.299 97.9244C330.621 99.2071 331.921 100.511 333.2 101.836L334.224 100.842ZM326.232 93.0821L327.19 92.0228C325.805 90.7634 324.4 89.5263 322.974 88.3123L322.052 89.4023L321.129 90.4923C322.53 91.6863 323.912 92.9028 325.274 94.1415L326.232 93.0821ZM317.754 85.8608L318.641 84.7412C317.178 83.5748 315.695 82.4318 314.193 81.3129L313.343 82.4609L312.493 83.6089C313.97 84.7092 315.428 85.8332 316.867 86.9803L317.754 85.8608ZM308.825 79.208L309.637 78.0328C308.102 76.965 306.548 75.9218 304.977 74.9036L304.203 76.1048L303.43 77.3059C304.975 78.3072 306.503 79.3331 308.012 80.3832L308.825 79.208ZM299.482 73.1537L300.216 71.9278C298.615 70.9632 296.996 70.024 295.362 69.1109L294.668 70.3603L293.974 71.6097C295.582 72.5075 297.173 73.431 298.748 74.3796L299.482 73.1537ZM289.766 67.7269L290.419 66.4553C288.758 65.5979 287.081 64.7668 285.389 63.9627L284.778 65.255L284.168 66.5474C285.832 67.338 287.48 68.1552 289.114 68.9984L289.766 67.7269ZM139.417 65.255L138.806 63.9627C137.114 64.7668 135.437 65.5978 133.776 66.4553L134.429 67.7268L135.081 68.9984C136.714 68.1552 138.363 67.338 140.027 66.5474L139.417 65.255ZM129.527 70.3603L128.833 69.1109C127.198 70.024 125.58 70.9631 123.979 71.9278L124.713 73.1537L125.447 74.3796C127.022 73.431 128.613 72.5075 130.22 71.6096L129.527 70.3603ZM119.991 76.1047L119.218 74.9036C117.646 75.9218 116.093 76.965 114.558 78.0328L115.37 79.208L116.182 80.3832C117.692 79.3331 119.22 78.3072 120.765 77.3059L119.991 76.1047ZM110.852 82.4609L110.002 81.3129C108.5 82.4318 107.017 83.5748 105.554 84.7412L106.441 85.8608L107.328 86.9803C108.767 85.8332 110.225 84.7092 111.702 83.6089L110.852 82.4609ZM102.143 89.4023L101.22 88.3122C99.795 89.5263 98.3898 90.7634 97.0052 92.0228L97.963 93.0821L98.9208 94.1414C100.283 92.9028 101.665 91.6862 103.066 90.4923L102.143 89.4023ZM93.9037 96.8969L92.9121 95.8694C91.5687 97.1736 90.2466 98.4997 88.9462 99.8471L89.9707 100.842L90.9951 101.836C92.274 100.511 93.5743 99.2071 94.8954 97.9244L93.9037 96.8969ZM86.1673 104.913L85.1111 103.952C83.8554 105.341 82.622 106.751 81.4116 108.18L82.4983 109.106L83.5851 110.032C84.7755 108.626 85.9885 107.24 87.2234 105.874L86.1673 104.913ZM78.9674 113.416L77.8512 112.527C76.6882 113.994 75.5487 115.482 74.4331 116.988L75.5777 117.841L76.7222 118.693C77.8193 117.212 78.9399 115.749 80.0836 114.306L78.9674 113.416ZM72.3344 122.372L71.1628 121.557C70.0982 123.097 69.058 124.655 68.0428 126.231L69.2404 127.007L70.438 127.783C71.4363 126.234 72.4592 124.701 73.5061 123.187L72.3344 122.372ZM66.2982 131.743L65.0759 131.007C64.1142 132.613 63.1778 134.236 62.2674 135.875L63.5131 136.571L64.7587 137.267C65.6539 135.655 66.5747 134.059 67.5204 132.479L66.2982 131.743ZM60.8875 141.488L59.6198 140.833C58.7648 142.499 57.9362 144.181 57.1346 145.878L58.423 146.49L59.7115 147.103C60.4998 145.434 61.3146 143.78 62.1552 142.142L60.8875 141.488ZM56.1248 151.57L54.8169 151C54.0737 152.718 53.3576 154.449 52.6692 156.195L53.9951 156.721L55.3209 157.247C55.9978 155.53 56.7019 153.828 57.4327 152.139L56.1248 151.57ZM52.0343 161.943L50.6919 161.462C50.063 163.224 49.4621 165 48.8895 166.788L50.2471 167.225L51.6046 167.663C52.1675 165.904 52.7584 164.158 53.3767 162.425L52.0343 161.943ZM48.6352 172.561L47.264 172.169C46.7522 173.97 46.269 175.783 45.8148 177.607L47.1981 177.953L48.5814 178.3C49.028 176.506 49.5031 174.724 50.0063 172.953L48.6352 172.561ZM45.9399 183.386L44.546 183.086C44.1542 184.913 43.7914 186.752 43.458 188.601L44.8611 188.855L46.2641 189.11C46.5919 187.292 46.9486 185.484 47.3339 183.687L45.9399 183.386ZM43.9606 194.365L42.55 194.157C42.2789 196.006 42.0371 197.865 41.8251 199.732L43.2417 199.894L44.6584 200.056C44.8668 198.219 45.1046 196.391 45.3713 194.573L43.9606 194.365ZM42.703 205.443L41.2819 205.328C41.1313 207.194 41.0104 209.068 40.9197 210.951L42.3438 211.02L43.7679 211.089C43.8572 209.237 43.9761 207.394 44.1242 205.559L42.703 205.443ZM40.7168 219.388C40.7168 218.445 40.7244 217.504 40.7395 216.565L42.1651 216.588L43.5907 216.611C43.5776 217.425 43.5703 218.24 43.5687 219.056C42.6101 219.292 41.6595 219.547 40.7173 219.823C40.717 219.678 40.7168 219.533 40.7168 219.388ZM97.963 345.695L97.0051 346.754C98.3898 348.013 99.795 349.251 101.22 350.465L102.143 349.375L103.066 348.285C101.665 347.091 100.283 345.874 98.9208 344.635L97.963 345.695ZM106.441 352.916L105.554 354.036C107.017 355.202 108.5 356.345 110.002 357.464L110.852 356.316L111.702 355.168C110.225 354.068 108.767 352.944 107.328 351.797L106.441 352.916ZM115.37 359.569L114.557 360.744C116.093 361.812 117.646 362.855 119.218 363.873L119.991 362.672L120.765 361.471C119.22 360.47 117.692 359.444 116.182 358.394L115.37 359.569ZM128.833 369.666C127.198 368.753 125.58 367.814 123.979 366.849L124.713 365.623L125.447 364.397C127.022 365.346 128.613 366.269 130.22 367.167L129.527 368.417L128.833 369.666ZM134.429 371.05L133.776 372.322C135.437 373.179 137.114 374.01 138.806 374.814L139.417 373.522L140.027 372.229C138.363 371.439 136.714 370.622 135.081 369.779L134.429 371.05ZM144.481 375.827L143.913 377.139C145.625 377.884 147.352 378.602 149.092 379.293L149.617 377.963L150.141 376.633C148.43 375.954 146.732 375.248 145.049 374.515L144.481 375.827ZM154.823 379.93L154.343 381.276C156.1 381.907 157.871 382.51 159.654 383.084L160.09 381.722L160.526 380.361C158.772 379.796 157.032 379.203 155.304 378.583L154.823 379.93ZM165.41 383.339L165.019 384.714C166.814 385.228 168.622 385.712 170.44 386.168L170.786 384.78L171.131 383.393C169.343 382.945 167.566 382.468 165.801 381.964L165.41 383.339ZM176.202 386.042L175.903 387.44C177.725 387.833 179.558 388.197 181.401 388.532L181.655 387.124L181.909 385.717C180.096 385.388 178.294 385.03 176.502 384.644L176.202 386.042ZM187.149 388.027L186.941 389.442C188.785 389.714 190.638 389.957 192.5 390.169L192.661 388.748L192.822 387.328C190.991 387.119 189.169 386.88 187.356 386.613L187.149 388.027ZM198.194 389.289L198.079 390.714C199.939 390.865 201.808 390.986 203.685 391.077L203.753 389.649L203.822 388.221C201.977 388.131 200.139 388.012 198.309 387.863L198.194 389.289ZM209.305 389.828L209.282 391.258C210.219 391.273 211.157 391.281 212.097 391.281C213.038 391.281 213.976 391.273 214.913 391.258L214.89 389.828L214.867 388.398C213.945 388.413 213.022 388.421 212.097 388.421C211.172 388.421 210.249 388.413 209.328 388.398L209.305 389.828ZM220.441 389.649L220.51 391.077C222.387 390.986 224.256 390.865 226.116 390.714L226.001 389.289L225.886 387.863C224.056 388.012 222.218 388.131 220.372 388.221L220.441 389.649ZM231.534 388.748L231.695 390.169C233.557 389.957 235.41 389.714 237.254 389.442L237.046 388.027L236.839 386.613C235.026 386.88 233.204 387.119 231.373 387.328L231.534 388.748ZM242.54 387.124L242.793 388.532C244.637 388.197 246.47 387.833 248.292 387.44L247.992 386.042L247.693 384.644C245.901 385.03 244.098 385.388 242.286 385.717L242.54 387.124ZM253.409 384.78L253.754 386.168C255.573 385.712 257.381 385.227 259.176 384.714L258.785 383.339L258.394 381.964C256.629 382.468 254.852 382.945 253.064 383.393L253.409 384.78ZM264.105 381.722L264.541 383.084C266.324 382.51 268.095 381.907 269.852 381.276L269.371 379.93L268.891 378.583C267.163 379.203 265.422 379.796 263.669 380.361L264.105 381.722ZM280.282 377.139C278.57 377.884 276.843 378.602 275.103 379.293L274.578 377.963L274.054 376.633C275.765 375.954 277.463 375.248 279.146 374.515L279.714 375.827L280.282 377.139ZM284.778 373.522L285.389 374.814C287.081 374.01 288.758 373.179 290.419 372.322L289.766 371.05L289.114 369.779C287.48 370.622 285.832 371.439 284.168 372.229L284.778 373.522ZM294.668 368.417L295.362 369.666C296.996 368.753 298.615 367.814 300.216 366.849L299.482 365.623L298.748 364.397C297.173 365.346 295.582 366.269 293.974 367.167L294.668 368.417ZM304.203 362.672L304.977 363.873C306.548 362.855 308.102 361.812 309.637 360.744L308.825 359.569L308.012 358.394C306.503 359.444 304.975 360.47 303.43 361.471L304.203 362.672ZM313.343 356.316L314.193 357.464C315.695 356.345 317.178 355.202 318.641 354.036L317.754 352.916L316.867 351.797C315.428 352.944 313.969 354.068 312.493 355.168L313.343 356.316ZM322.052 349.375L322.974 350.465C324.4 349.251 325.805 348.013 327.19 346.754L326.232 345.695L325.274 344.635C323.912 345.874 322.53 347.091 321.129 348.285L322.052 349.375Z" fill="black"/>
</svg>
