<svg width="441" height="441" viewBox="0 0 441 441" fill="none" xmlns="http://www.w3.org/2000/svg">
<path d="M220.474 219.997L152.49 10.7677C175.6 3.26418 196.173 0 220.474 0V219.997Z" fill="#274579"/>
<path d="M191.497 57.9401C190.711 57.9581 189.932 57.7932 189.22 57.4586C188.603 57.1582 188.087 56.6846 187.735 56.0958C187.379 55.4756 187.199 54.7705 187.213 54.0557V53.8598H188.988V54.023C188.973 54.3367 189.024 54.6499 189.137 54.9428C189.25 55.2357 189.423 55.5019 189.644 55.7245C189.893 55.9481 190.183 56.1199 190.498 56.2299C190.813 56.3399 191.147 56.3859 191.481 56.3651C191.822 56.3867 192.165 56.339 192.487 56.2247C192.81 56.1104 193.106 55.9319 193.357 55.7C193.583 55.4613 193.758 55.1797 193.872 54.872C193.986 54.5643 194.037 54.2367 194.023 53.9088V53.7578C194.037 53.4405 193.986 53.1236 193.873 52.8267C193.76 52.5299 193.587 52.2593 193.366 52.0319C193.146 51.8168 192.884 51.6484 192.598 51.5369C192.311 51.4254 192.004 51.3731 191.697 51.3831C191.375 51.3715 191.054 51.4315 190.758 51.5586C190.533 51.6529 190.329 51.7917 190.159 51.9666C190.023 52.1173 189.898 52.2783 189.787 52.4481H187.576V46.1074H195.365V47.6865H189.322V51.1057H189.587C189.713 50.9006 189.873 50.7184 190.061 50.5671C190.305 50.3812 190.582 50.2428 190.877 50.1591C191.264 50.0404 191.667 49.9839 192.072 49.9918C192.722 49.9831 193.364 50.1344 193.941 50.4325C194.501 50.7282 194.965 51.1767 195.279 51.7259C195.625 52.3593 195.797 53.0731 195.777 53.7946V53.9782C195.795 54.7144 195.617 55.4422 195.263 56.0876C194.916 56.6843 194.405 57.1687 193.79 57.4831C193.074 57.8184 192.287 57.9752 191.497 57.9401Z" fill="white"/>
<path d="M199.6 51.1326C199.245 51.1517 198.89 51.1006 198.556 50.9823C198.221 50.8639 197.913 50.6807 197.649 50.4431C197.404 50.2001 197.213 49.908 197.088 49.586C196.964 49.2639 196.909 48.9191 196.927 48.5743V48.4601C196.908 48.1139 196.962 47.7676 197.087 47.4441C197.211 47.1205 197.403 46.8271 197.649 46.5832C198.201 46.1422 198.886 45.9019 199.592 45.9019C200.298 45.9019 200.982 46.1422 201.534 46.5832C201.78 46.8271 201.972 47.1205 202.096 47.4441C202.221 47.7676 202.275 48.1139 202.256 48.4601V48.5743C202.275 48.9185 202.222 49.2629 202.099 49.585C201.975 49.907 201.786 50.1994 201.542 50.4431C201.28 50.6805 200.973 50.8636 200.64 50.982C200.306 51.1003 199.953 51.1515 199.6 51.1326ZM198.784 57.9221L197.723 57.0612L206.805 45.8691L207.866 46.7341L198.784 57.9221ZM199.6 49.9698C199.771 49.9782 199.942 49.9494 200.102 49.8853C200.261 49.8212 200.404 49.7233 200.522 49.5985C200.754 49.3295 200.875 48.9823 200.86 48.6274V48.3948C200.877 48.042 200.756 47.6966 200.522 47.4319C200.403 47.3084 200.26 47.2117 200.101 47.1484C199.941 47.0851 199.771 47.0565 199.6 47.0646C199.426 47.0557 199.253 47.0839 199.091 47.1472C198.929 47.2105 198.783 47.3076 198.661 47.4319C198.425 47.6951 198.301 48.0412 198.319 48.3948V48.6274C198.304 48.9831 198.426 49.3309 198.661 49.5985C198.781 49.7248 198.927 49.8235 199.09 49.8876C199.252 49.9517 199.426 49.9798 199.6 49.9698ZM205.957 57.8895C205.603 57.9084 205.25 57.8572 204.917 57.7388C204.583 57.6205 204.277 57.4373 204.015 57.1999C203.773 56.9557 203.584 56.6638 203.461 56.3427C203.338 56.0217 203.284 55.6786 203.3 55.3353V55.2332C203.283 54.8868 203.337 54.5404 203.46 54.216C203.583 53.8916 203.772 53.5961 204.015 53.3482C204.565 52.9044 205.25 52.6623 205.957 52.6623C206.663 52.6623 207.349 52.9044 207.899 53.3482C208.148 53.5923 208.342 53.8867 208.468 54.2118C208.594 54.5369 208.649 54.8852 208.629 55.2332V55.3353C208.647 55.6794 208.592 56.0234 208.467 56.3447C208.343 56.666 208.152 56.9574 207.907 57.1999C207.643 57.4377 207.335 57.6211 207.001 57.7394C206.666 57.8578 206.311 57.9088 205.957 57.8895ZM205.957 56.7307C206.13 56.7396 206.304 56.7114 206.465 56.6481C206.627 56.5848 206.774 56.4878 206.895 56.3635C207.131 56.0998 207.254 55.754 207.238 55.4005V55.168C207.255 54.8094 207.133 54.4581 206.895 54.1887C206.774 54.0644 206.627 53.9674 206.465 53.9041C206.304 53.8407 206.13 53.8126 205.957 53.8215C205.786 53.8129 205.616 53.8412 205.457 53.9046C205.299 53.968 205.156 54.0649 205.039 54.1887C204.801 54.4581 204.678 54.8094 204.696 55.168V55.4005C204.68 55.754 204.803 56.0998 205.039 56.3635C205.158 56.4843 205.301 56.5782 205.46 56.6387C205.618 56.6993 205.787 56.7251 205.957 56.7144V56.7307Z" fill="white"/>
<path d="M220.475 219.997L91.1602 42.0256C110.823 27.7449 129.38 18.2869 152.49 10.7793L220.475 219.997Z" fill="#70AD46"/>
<path d="M138.793 76.0073C138.008 76.0274 137.229 75.8625 136.52 75.5259C135.902 75.2282 135.384 74.7558 135.031 74.1672C134.675 73.547 134.495 72.8418 134.509 72.1271V71.9434H136.279V72.1107C136.264 72.4245 136.314 72.738 136.428 73.0311C136.541 73.3241 136.714 73.5902 136.936 73.8122C137.184 74.0354 137.473 74.2071 137.788 74.3171C138.102 74.4271 138.436 74.4732 138.768 74.4528C139.11 74.4737 139.452 74.4256 139.774 74.3113C140.097 74.1971 140.393 74.019 140.645 73.7877C140.873 73.5496 141.049 73.2675 141.163 72.9588C141.278 72.65 141.328 72.3212 141.31 71.9924V71.8455C141.325 71.5282 141.274 71.2112 141.161 70.9143C141.048 70.6174 140.875 70.3469 140.653 70.1196C140.434 69.9039 140.173 69.7351 139.886 69.6236C139.599 69.5121 139.292 69.4601 138.985 69.4708C138.663 69.4596 138.342 69.5195 138.046 69.6463C137.822 69.7408 137.62 69.8796 137.45 70.0543C137.313 70.205 137.188 70.3659 137.075 70.5358H134.868V64.1543H142.653V65.7293H136.618V69.1526H136.883C137.009 68.9461 137.169 68.7626 137.357 68.6099C137.6 68.4235 137.877 68.285 138.173 68.2019C138.559 68.0805 138.963 68.024 139.368 68.0346C140.016 68.0259 140.657 68.1772 141.233 68.4753C141.792 68.7709 142.253 69.2214 142.563 69.7728C142.909 70.4062 143.081 71.12 143.061 71.8414V72.021C143.079 72.7573 142.902 73.4853 142.547 74.1304C142.204 74.7296 141.694 75.2149 141.078 75.5259C140.367 75.8699 139.582 76.0351 138.793 76.0073Z" fill="white"/>
<path d="M146.887 69.201C146.172 69.2373 145.471 68.9894 144.937 68.5114C144.692 68.2685 144.5 67.9764 144.376 67.6543C144.251 67.3322 144.197 66.9875 144.215 66.6427V66.5284C144.195 66.1823 144.25 65.836 144.374 65.5124C144.499 65.1888 144.691 64.8954 144.937 64.6515C145.488 64.2105 146.173 63.9703 146.879 63.9703C147.585 63.9703 148.27 64.2105 148.821 64.6515C149.068 64.8954 149.26 65.1888 149.384 65.5124C149.509 65.836 149.563 66.1823 149.544 66.5284V66.6427C149.561 66.9867 149.507 67.3307 149.384 67.6525C149.261 67.9743 149.072 68.2669 148.829 68.5114C148.567 68.7486 148.261 68.9317 147.927 69.05C147.594 69.1683 147.241 69.2196 146.887 69.201ZM146.071 75.9905L145.006 75.1296L154.089 63.9375L155.154 64.7984L146.071 75.9905ZM146.887 68.0381C147.059 68.0458 147.23 68.0162 147.389 67.9514C147.549 67.8866 147.692 67.7881 147.809 67.6627C148.044 67.395 148.165 67.047 148.148 66.6916V66.4591C148.165 66.1062 148.044 65.7607 147.809 65.4961C147.69 65.3747 147.546 65.2796 147.387 65.2171C147.228 65.1545 147.058 65.1259 146.887 65.133C146.714 65.1236 146.541 65.1511 146.379 65.2137C146.217 65.2763 146.071 65.3726 145.949 65.4961C145.716 65.7616 145.595 66.1065 145.61 66.4591V66.6916C145.595 67.0467 145.716 67.394 145.949 67.6627C146.07 67.7885 146.216 67.8871 146.378 67.9518C146.539 68.0166 146.713 68.046 146.887 68.0381ZM153.248 75.9578C152.895 75.9776 152.541 75.9268 152.208 75.8085C151.874 75.6901 151.568 75.5064 151.306 75.2683C151.062 75.0246 150.873 74.7322 150.75 74.4102C150.627 74.0881 150.573 73.7437 150.592 73.3995V73.3016C150.574 72.955 150.628 72.6084 150.751 72.2838C150.873 71.9593 151.063 71.6639 151.306 71.4165C151.568 71.1784 151.874 70.9948 152.208 70.8764C152.541 70.758 152.895 70.7072 153.248 70.727C153.961 70.6925 154.659 70.9402 155.191 71.4165C155.438 71.6617 155.631 71.9563 155.757 72.2812C155.883 72.606 155.939 72.9537 155.921 73.3016V73.3995C155.939 73.7443 155.884 74.0891 155.76 74.4112C155.635 74.7332 155.444 75.0253 155.199 75.2683C154.668 75.7462 153.97 75.9942 153.257 75.9578H153.248ZM153.248 74.795C153.422 74.8044 153.595 74.7769 153.757 74.7143C153.918 74.6517 154.065 74.5554 154.187 74.4318C154.419 74.1664 154.541 73.8215 154.525 73.4689V73.2363C154.544 72.8783 154.423 72.5271 154.187 72.2571C154.065 72.1328 153.919 72.0357 153.757 71.9724C153.595 71.9091 153.422 71.881 153.248 71.8899C153.077 71.8812 152.906 71.9095 152.747 71.9729C152.588 72.0362 152.445 72.1332 152.326 72.2571C152.089 72.5262 151.967 72.8781 151.988 73.2363V73.4689C151.971 73.8218 152.092 74.1673 152.326 74.4318C152.447 74.5543 152.592 74.65 152.753 74.7126C152.913 74.7752 153.085 74.8032 153.257 74.795H153.248Z" fill="white"/>
<path d="M220.474 219.997V0C341.975 0 440.472 98.4966 440.472 219.997C440.472 244.299 437.207 264.88 429.704 287.982L220.474 219.997Z" fill="#4574C6"/>
<path d="M312.426 158.219C311.643 158.233 310.867 158.074 310.153 157.753C309.515 157.466 308.974 156.998 308.599 156.407C308.221 155.776 308.033 155.049 308.056 154.314V154.016H309.798V154.281C309.784 154.606 309.841 154.931 309.965 155.231C310.09 155.531 310.28 155.801 310.521 156.019C311.058 156.463 311.742 156.69 312.438 156.656C313.111 156.697 313.775 156.484 314.299 156.06C314.514 155.872 314.685 155.639 314.799 155.377C314.914 155.116 314.97 154.832 314.964 154.546V154.4C314.982 154.024 314.87 153.653 314.646 153.351C314.427 153.078 314.133 152.874 313.801 152.763C313.417 152.631 313.012 152.567 312.606 152.572H310.504V150.56L314.585 148.153V147.92H308.342V146.357H316.461V148.716L312.561 151.042V151.274H313.275C313.845 151.271 314.41 151.384 314.935 151.605C315.444 151.818 315.884 152.168 316.204 152.616C316.547 153.127 316.718 153.733 316.694 154.346V154.542C316.711 155.225 316.527 155.898 316.164 156.476C315.797 157.036 315.279 157.48 314.67 157.758C313.965 158.075 313.199 158.233 312.426 158.219Z" fill="white"/>
<path d="M322.785 158.218C321.599 158.276 320.439 157.86 319.558 157.064C318.742 156.294 318.334 155.134 318.334 153.583V150.76C318.334 149.245 318.742 148.094 319.558 147.308C320.465 146.546 321.611 146.129 322.796 146.129C323.98 146.129 325.126 146.546 326.033 147.308C326.849 148.094 327.257 149.245 327.257 150.76V153.583C327.257 155.134 326.849 156.294 326.033 157.064C325.146 157.864 323.978 158.279 322.785 158.218ZM322.785 156.656C323.163 156.686 323.542 156.631 323.896 156.495C324.249 156.359 324.567 156.144 324.826 155.868C325.303 155.232 325.539 154.447 325.491 153.653V150.662C325.542 149.865 325.286 149.078 324.777 148.463C324.518 148.202 324.206 147.999 323.863 147.869C323.52 147.738 323.152 147.682 322.785 147.704C322.416 147.681 322.046 147.739 321.702 147.875C321.358 148.011 321.048 148.222 320.794 148.491C320.299 149.107 320.05 149.885 320.097 150.674V153.665C320.042 154.466 320.281 155.259 320.77 155.897C321.029 156.164 321.345 156.37 321.693 156.501C322.041 156.632 322.414 156.685 322.785 156.656Z" fill="white"/>
<path d="M331.314 151.408C330.959 151.427 330.604 151.376 330.27 151.258C329.935 151.139 329.627 150.956 329.363 150.718C329.118 150.476 328.927 150.183 328.802 149.861C328.678 149.539 328.623 149.195 328.641 148.85V148.735C328.622 148.389 328.676 148.043 328.801 147.719C328.925 147.396 329.117 147.102 329.363 146.859C329.914 146.418 330.599 146.177 331.305 146.177C332.011 146.177 332.696 146.418 333.248 146.859C333.494 147.102 333.686 147.396 333.81 147.719C333.935 148.043 333.989 148.389 333.97 148.735V148.85C333.989 149.194 333.935 149.538 333.812 149.86C333.689 150.182 333.5 150.475 333.256 150.718C332.994 150.957 332.688 151.14 332.354 151.259C332.021 151.377 331.667 151.428 331.314 151.408ZM330.498 158.202L329.433 157.337L338.515 146.145L339.58 147.01L330.498 158.202ZM331.314 150.245C331.485 150.254 331.656 150.225 331.815 150.161C331.975 150.097 332.118 149.999 332.236 149.874C332.469 149.606 332.59 149.258 332.574 148.903V148.67C332.593 148.317 332.471 147.971 332.236 147.707C332.117 147.584 331.973 147.487 331.814 147.424C331.655 147.36 331.485 147.332 331.314 147.34C331.14 147.331 330.967 147.359 330.805 147.423C330.643 147.486 330.497 147.583 330.375 147.707C330.14 147.971 330.018 148.317 330.036 148.67V148.903C330.02 149.258 330.142 149.606 330.375 149.874C330.496 149.999 330.642 150.097 330.804 150.161C330.966 150.225 331.14 150.254 331.314 150.245ZM337.675 158.165C337.322 158.184 336.968 158.134 336.635 158.016C336.302 157.898 335.995 157.716 335.732 157.479C335.49 157.235 335.301 156.942 335.178 156.62C335.055 156.299 335.001 155.955 335.018 155.611V155.509C334.999 155.163 335.053 154.816 335.176 154.493C335.299 154.169 335.489 153.874 335.732 153.628C335.994 153.39 336.301 153.206 336.634 153.087C336.968 152.969 337.321 152.918 337.675 152.938C338.388 152.904 339.085 153.151 339.617 153.628C339.865 153.871 340.059 154.165 340.185 154.489C340.311 154.814 340.366 155.161 340.347 155.509V155.611C340.365 155.955 340.31 156.3 340.186 156.622C340.062 156.944 339.87 157.236 339.625 157.479C339.092 157.953 338.395 158.2 337.683 158.165H337.675ZM337.675 157.006C337.848 157.015 338.022 156.987 338.183 156.924C338.345 156.86 338.492 156.763 338.613 156.639C338.846 156.374 338.967 156.029 338.952 155.676V155.456C338.969 155.098 338.847 154.747 338.613 154.476C338.492 154.352 338.345 154.255 338.183 154.192C338.022 154.128 337.848 154.1 337.675 154.109C337.504 154.1 337.333 154.129 337.174 154.192C337.014 154.256 336.871 154.352 336.753 154.476C336.515 154.746 336.392 155.097 336.41 155.456V155.688C336.393 156.042 336.517 156.387 336.753 156.651C336.873 156.774 337.018 156.869 337.179 156.93C337.339 156.992 337.511 157.018 337.683 157.006H337.675Z" fill="white"/>
<path d="M220.474 219.998L429.704 287.983C407.177 357.314 357.79 406.701 288.471 429.24L220.474 219.998Z" fill="#EF7E32"/>
<path d="M299.826 315.874V305.482H299.561L297.652 309.399H295.815L298.39 304.254H301.577V315.874H299.826Z" fill="white"/>
<path d="M307.795 316.107C307.009 316.127 306.229 315.962 305.518 315.625C304.901 315.328 304.384 314.855 304.033 314.267C303.677 313.647 303.497 312.941 303.511 312.227V312.043H305.285V312.21C305.271 312.524 305.322 312.837 305.435 313.13C305.548 313.423 305.721 313.689 305.942 313.912C306.19 314.135 306.481 314.307 306.796 314.417C307.111 314.527 307.445 314.573 307.778 314.552C308.12 314.574 308.462 314.526 308.785 314.412C309.108 314.298 309.404 314.119 309.655 313.887C309.881 313.649 310.056 313.367 310.17 313.06C310.283 312.752 310.333 312.424 310.316 312.096V311.945C310.332 311.628 310.281 311.311 310.169 311.014C310.057 310.717 309.885 310.447 309.663 310.219C309.443 310.004 309.182 309.836 308.895 309.724C308.609 309.613 308.302 309.56 307.995 309.57C307.673 309.559 307.352 309.619 307.056 309.746C306.831 309.84 306.627 309.979 306.456 310.154C306.32 310.304 306.195 310.465 306.085 310.635H303.874V304.254H311.663V305.829H305.608V309.252H305.873C306 309.047 306.16 308.863 306.346 308.71C306.59 308.524 306.867 308.385 307.162 308.301C307.549 308.183 307.953 308.126 308.358 308.134C309.007 308.125 309.649 308.277 310.227 308.575C310.786 308.871 311.25 309.319 311.565 309.868C311.911 310.502 312.083 311.216 312.063 311.937V312.121C312.081 312.856 311.903 313.582 311.549 314.226C311.204 314.825 310.692 315.309 310.076 315.621C309.366 315.967 308.583 316.133 307.795 316.107Z" fill="white"/>
<path d="M315.899 309.301C315.544 309.32 315.189 309.269 314.855 309.15C314.52 309.032 314.212 308.849 313.948 308.611C313.703 308.368 313.512 308.076 313.387 307.754C313.263 307.432 313.208 307.087 313.226 306.742V306.628C313.207 306.282 313.261 305.936 313.385 305.612C313.51 305.288 313.702 304.995 313.948 304.751C314.499 304.31 315.184 304.07 315.89 304.07C316.596 304.07 317.281 304.31 317.833 304.751C318.079 304.995 318.271 305.288 318.395 305.612C318.52 305.936 318.574 306.282 318.555 306.628V306.742C318.572 307.086 318.518 307.43 318.395 307.752C318.272 308.074 318.083 308.366 317.841 308.611C317.579 308.849 317.272 309.032 316.939 309.151C316.605 309.269 316.252 309.32 315.899 309.301ZM315.082 316.09L314.022 315.229L323.104 304.037L324.165 304.898L315.082 316.09ZM315.899 308.138C316.07 308.145 316.241 308.116 316.4 308.052C316.559 307.988 316.702 307.891 316.821 307.766C317.053 307.496 317.174 307.147 317.159 306.791V306.559C317.175 306.206 317.053 305.861 316.821 305.596C316.701 305.474 316.557 305.379 316.398 305.317C316.239 305.254 316.069 305.226 315.899 305.233C315.725 305.223 315.552 305.251 315.39 305.313C315.228 305.376 315.082 305.472 314.96 305.596C314.726 305.86 314.604 306.206 314.621 306.559V306.791C314.605 307.148 314.726 307.497 314.96 307.766C315.081 307.891 315.227 307.989 315.389 308.053C315.551 308.117 315.725 308.146 315.899 308.138ZM322.26 316.057C321.906 316.077 321.551 316.026 321.217 315.908C320.883 315.789 320.576 315.606 320.313 315.368C320.071 315.124 319.883 314.832 319.76 314.511C319.637 314.19 319.582 313.847 319.599 313.503V313.401C319.582 313.055 319.636 312.708 319.759 312.384C319.882 312.06 320.071 311.764 320.313 311.516C320.845 311.038 321.545 310.79 322.26 310.827C322.972 310.795 323.669 311.042 324.202 311.516C324.449 311.761 324.642 312.056 324.768 312.381C324.894 312.706 324.95 313.053 324.932 313.401V313.503C324.95 313.847 324.895 314.191 324.77 314.513C324.646 314.834 324.455 315.125 324.21 315.368C323.677 315.847 322.975 316.095 322.26 316.057ZM322.26 314.895C322.432 314.903 322.605 314.876 322.766 314.813C322.927 314.75 323.073 314.654 323.194 314.531C323.429 314.267 323.552 313.922 323.537 313.569V313.336C323.556 312.977 323.433 312.625 323.194 312.357C323.073 312.233 322.927 312.136 322.766 312.073C322.605 312.01 322.432 311.981 322.26 311.989C322.089 311.981 321.918 312.009 321.758 312.072C321.599 312.136 321.456 312.233 321.337 312.357C321.099 312.625 320.975 312.977 320.995 313.336V313.569C320.979 313.922 321.102 314.267 321.337 314.531C321.456 314.655 321.6 314.751 321.759 314.813C321.918 314.876 322.089 314.904 322.26 314.895Z" fill="white"/>
<path d="M220.475 219.998L288.472 429.24C219.108 451.755 150.152 440.828 91.1602 397.981L220.475 219.998Z" fill="#A5A5A5"/>
<path d="M194.075 354.628V344.236H193.81L191.901 348.153H190.061L192.631 343.008H195.822V354.628H194.075Z" fill="white"/>
<path d="M202.048 354.861C201.262 354.881 200.482 354.716 199.771 354.379C199.154 354.08 198.637 353.606 198.286 353.017C197.927 352.398 197.747 351.692 197.764 350.976V350.793H199.522V350.96C199.508 351.274 199.559 351.587 199.672 351.88C199.785 352.173 199.958 352.439 200.179 352.662C200.427 352.885 200.716 353.057 201.031 353.167C201.345 353.277 201.679 353.323 202.011 353.302C202.353 353.323 202.695 353.275 203.017 353.161C203.34 353.047 203.636 352.868 203.888 352.637C204.115 352.4 204.291 352.118 204.405 351.81C204.52 351.502 204.57 351.174 204.553 350.846V350.695C204.569 350.378 204.518 350.06 204.405 349.763C204.292 349.466 204.119 349.196 203.896 348.969C203.677 348.753 203.416 348.585 203.129 348.473C202.842 348.362 202.535 348.31 202.228 348.32C201.906 348.309 201.585 348.369 201.289 348.496C201.066 348.591 200.863 348.73 200.693 348.904C200.555 349.055 200.43 349.217 200.318 349.389H198.111V343.008H205.9V344.583H199.869V348.002H200.138C200.263 347.797 200.422 347.615 200.608 347.463C200.852 347.279 201.129 347.14 201.424 347.055C201.81 346.934 202.214 346.878 202.619 346.888C203.269 346.879 203.911 347.031 204.488 347.329C205.049 347.622 205.512 348.071 205.822 348.622C206.171 349.255 206.343 349.969 206.32 350.691V350.874C206.338 351.609 206.161 352.336 205.806 352.98C205.464 353.579 204.953 354.064 204.337 354.375C203.624 354.72 202.839 354.886 202.048 354.861Z" fill="white"/>
<path d="M210.152 348.043C209.435 348.079 208.732 347.831 208.197 347.353C207.952 347.11 207.761 346.818 207.636 346.496C207.512 346.174 207.457 345.829 207.475 345.484V345.37C207.456 345.024 207.51 344.678 207.635 344.354C207.759 344.031 207.951 343.737 208.197 343.493C208.734 343.018 209.436 342.773 210.152 342.812C210.861 342.775 211.556 343.02 212.086 343.493C212.332 343.737 212.524 344.031 212.648 344.354C212.773 344.678 212.827 345.024 212.808 345.37V345.484C212.825 345.828 212.77 346.172 212.647 346.494C212.524 346.815 212.336 347.108 212.094 347.353C211.563 347.831 210.865 348.079 210.152 348.043ZM209.336 354.832L208.275 353.971L217.357 342.779L218.418 343.64L209.336 354.832ZM210.152 346.88C210.323 346.888 210.494 346.858 210.652 346.793C210.811 346.729 210.953 346.63 211.07 346.505C211.305 346.237 211.428 345.889 211.412 345.533V345.301C211.428 344.948 211.305 344.602 211.07 344.338C210.951 344.216 210.808 344.12 210.65 344.058C210.491 343.995 210.322 343.967 210.152 343.975C209.978 343.965 209.805 343.993 209.643 344.055C209.482 344.118 209.335 344.214 209.213 344.338C208.978 344.602 208.855 344.948 208.87 345.301V345.533C208.855 345.889 208.978 346.237 209.213 346.505C209.333 346.633 209.478 346.733 209.64 346.8C209.802 346.867 209.977 346.898 210.152 346.892V346.88ZM216.509 354.8C216.155 354.819 215.802 354.768 215.468 354.65C215.135 354.531 214.828 354.348 214.566 354.11C214.323 353.866 214.133 353.574 214.01 353.252C213.887 352.93 213.833 352.586 213.852 352.241V352.143C213.834 351.797 213.888 351.45 214.011 351.126C214.134 350.801 214.323 350.506 214.566 350.258C214.829 350.021 215.136 349.838 215.469 349.72C215.802 349.602 216.155 349.55 216.509 349.569C217.221 349.535 217.919 349.783 218.451 350.258C218.7 350.502 218.894 350.797 219.02 351.122C219.146 351.447 219.201 351.795 219.181 352.143V352.241C219.199 352.586 219.144 352.931 219.02 353.253C218.896 353.575 218.704 353.867 218.459 354.11C218.196 354.35 217.889 354.535 217.554 354.656C217.219 354.776 216.864 354.829 216.509 354.812V354.8ZM216.509 353.637C216.682 353.646 216.855 353.619 217.017 353.556C217.179 353.493 217.325 353.397 217.447 353.274C217.682 353.01 217.805 352.664 217.79 352.311V352.078C217.808 351.718 217.685 351.365 217.447 351.095C217.325 350.971 217.179 350.875 217.017 350.812C216.855 350.75 216.682 350.722 216.509 350.732C216.338 350.725 216.168 350.753 216.009 350.816C215.85 350.878 215.706 350.973 215.587 351.095C215.351 351.367 215.23 351.719 215.248 352.078V352.311C215.233 352.663 215.354 353.008 215.587 353.274C215.705 353.397 215.849 353.495 216.008 353.559C216.167 353.624 216.337 353.655 216.509 353.649V353.637Z" fill="white"/>
<path d="M220.474 219.998L91.1599 397.981C51.8428 369.42 26.2598 334.203 11.2446 287.983L220.474 219.998Z" fill="#FFC000"/>
<path d="M108.79 299.154V288.761H108.533L106.624 292.678H104.779L107.354 287.533H110.545V299.154H108.79Z" fill="white"/>
<path d="M117.102 299.386C115.915 299.445 114.752 299.029 113.871 298.231C113.055 297.464 112.667 296.306 112.667 294.755V291.932C112.667 290.414 113.075 289.263 113.871 288.48C114.778 287.718 115.924 287.301 117.108 287.301C118.293 287.301 119.439 287.718 120.346 288.48C121.162 289.263 121.57 290.414 121.57 291.932V294.755C121.57 296.306 121.162 297.464 120.346 298.231C119.908 298.628 119.396 298.934 118.839 299.132C118.283 299.33 117.692 299.417 117.102 299.386ZM117.102 297.828C117.48 297.858 117.859 297.802 118.212 297.666C118.565 297.53 118.883 297.316 119.142 297.04C119.622 296.403 119.858 295.616 119.807 294.82V291.834C119.861 291.036 119.605 290.248 119.093 289.634C118.835 289.373 118.523 289.171 118.18 289.04C117.836 288.91 117.469 288.855 117.102 288.88C116.732 288.857 116.362 288.916 116.017 289.052C115.672 289.188 115.362 289.398 115.107 289.667C114.614 290.286 114.367 291.065 114.413 291.854V294.841C114.361 295.628 114.591 296.408 115.062 297.04C115.321 297.316 115.639 297.53 115.992 297.666C116.346 297.802 116.725 297.858 117.102 297.828Z" fill="white"/>
<path d="M125.63 292.58C124.913 292.618 124.21 292.37 123.675 291.89C123.431 291.646 123.241 291.354 123.117 291.032C122.992 290.71 122.937 290.366 122.953 290.022V289.907C122.934 289.561 122.988 289.215 123.113 288.891C123.237 288.568 123.429 288.274 123.675 288.03C124.212 287.555 124.914 287.31 125.63 287.349C126.339 287.312 127.034 287.557 127.564 288.03C127.81 288.274 128.002 288.568 128.126 288.891C128.251 289.215 128.305 289.561 128.286 289.907V290.022C128.303 290.366 128.248 290.709 128.125 291.031C128.002 291.353 127.814 291.645 127.572 291.89C127.31 292.128 127.003 292.311 126.67 292.429C126.336 292.548 125.983 292.599 125.63 292.58ZM124.814 299.369L123.753 298.508L132.835 287.316L133.896 288.177L124.814 299.369ZM125.63 291.417C125.801 291.425 125.973 291.395 126.132 291.33C126.291 291.265 126.434 291.167 126.552 291.042C126.784 290.773 126.905 290.426 126.89 290.071V289.838C126.906 289.485 126.784 289.14 126.552 288.875C126.432 288.754 126.288 288.659 126.129 288.596C125.97 288.533 125.8 288.505 125.63 288.512C125.456 288.502 125.283 288.53 125.121 288.593C124.96 288.655 124.813 288.751 124.691 288.875C124.456 289.139 124.333 289.485 124.348 289.838V290.071C124.333 290.426 124.456 290.774 124.691 291.042C124.812 291.167 124.958 291.266 125.12 291.331C125.282 291.395 125.456 291.425 125.63 291.417ZM131.987 299.337C131.633 299.356 131.28 299.305 130.946 299.187C130.613 299.068 130.306 298.885 130.044 298.647C129.802 298.402 129.614 298.11 129.491 297.788C129.368 297.466 129.313 297.122 129.33 296.778V296.681C129.313 296.334 129.367 295.988 129.49 295.663C129.613 295.339 129.802 295.043 130.044 294.795C130.307 294.558 130.614 294.376 130.947 294.257C131.28 294.139 131.633 294.087 131.987 294.106C132.699 294.072 133.397 294.32 133.929 294.795C134.178 295.04 134.372 295.334 134.498 295.659C134.624 295.984 134.679 296.332 134.659 296.681V296.778C134.677 297.123 134.622 297.468 134.498 297.79C134.374 298.112 134.182 298.404 133.937 298.647C133.673 298.885 133.365 299.068 133.031 299.186C132.696 299.305 132.341 299.356 131.987 299.337ZM131.987 298.174C132.16 298.183 132.333 298.156 132.495 298.093C132.657 298.031 132.803 297.934 132.925 297.811C133.16 297.547 133.283 297.201 133.268 296.848V296.632C133.287 296.273 133.164 295.921 132.925 295.652C132.804 295.528 132.657 295.431 132.495 295.368C132.334 295.304 132.16 295.276 131.987 295.285C131.816 295.277 131.645 295.306 131.486 295.369C131.327 295.432 131.183 295.529 131.065 295.652C130.829 295.922 130.707 296.274 130.726 296.632V296.864C130.711 297.217 130.832 297.562 131.065 297.827C131.186 297.946 131.33 298.038 131.489 298.097C131.648 298.157 131.817 298.183 131.987 298.174Z" fill="white"/>
<path d="M220.474 219.996L11.2444 287.981C-18.7942 195.536 12.5256 99.1485 91.1596 42.0254L220.474 219.996Z" fill="#5A9BD5"/>
<path d="M75.6512 181.382V180.068C75.6222 179.381 75.7623 178.697 76.0592 178.077C76.3332 177.555 76.7417 177.115 77.2425 176.804C77.826 176.45 78.4546 176.175 79.1112 175.988L80.1272 175.674C80.5379 175.548 80.9303 175.368 81.2941 175.139C81.6079 174.943 81.8685 174.673 82.0531 174.352C82.2351 174.014 82.3265 173.634 82.3183 173.25V173.181C82.3317 172.891 82.2787 172.603 82.1634 172.337C82.0482 172.071 81.8736 171.835 81.6532 171.647C81.1344 171.276 80.5111 171.081 79.8737 171.088C79.2362 171.095 78.6176 171.305 78.1075 171.687C77.8689 171.911 77.6832 172.185 77.5639 172.489C77.4446 172.793 77.3947 173.12 77.4179 173.446V173.711H75.692V173.462C75.6686 172.714 75.8582 171.974 76.2387 171.328C76.6056 170.748 77.1309 170.285 77.7525 169.994C78.4279 169.693 79.1591 169.537 79.8987 169.537C80.6383 169.537 81.3695 169.693 82.0449 169.994C82.6435 170.271 83.1544 170.707 83.5219 171.255C83.8885 171.823 84.0762 172.488 84.0605 173.164V173.315C84.0959 173.938 83.957 174.559 83.6593 175.107C83.3616 175.656 82.917 176.111 82.3754 176.421C81.8029 176.763 81.1921 177.037 80.5556 177.237L79.5764 177.534C79.1414 177.656 78.7212 177.826 78.3237 178.04C78.026 178.191 77.7796 178.426 77.6155 178.717C77.4514 179.007 77.377 179.34 77.4016 179.672V179.84H83.9708V181.402L75.6512 181.382Z" fill="white"/>
<path d="M90.1277 181.611C88.9421 181.669 87.7816 181.255 86.9003 180.46C86.0842 179.69 85.683 178.53 85.6966 176.98V174.156C85.6966 172.642 86.1046 171.488 86.9003 170.704C87.8073 169.943 88.9537 169.525 90.1379 169.525C91.3222 169.525 92.4686 169.943 93.3756 170.704C94.1916 171.488 94.5997 172.642 94.5997 174.156V176.98C94.5997 178.53 94.1916 179.69 93.3756 180.46C92.9367 180.856 92.4239 181.162 91.8665 181.36C91.3091 181.557 90.7182 181.642 90.1277 181.611ZM90.1277 180.052C90.5051 180.082 90.8843 180.027 91.2374 179.891C91.5906 179.754 91.9085 179.54 92.1679 179.265C92.6459 178.627 92.8816 177.84 92.8329 177.045V174.058C92.884 173.261 92.6286 172.474 92.1189 171.859C91.8607 171.595 91.5492 171.389 91.2051 171.256C90.861 171.122 90.4923 171.063 90.1237 171.084C89.754 171.061 89.384 171.121 89.0398 171.258C88.6957 171.394 88.3859 171.605 88.1325 171.875C87.6369 172.491 87.3882 173.269 87.4348 174.058V177.045C87.3797 177.847 87.619 178.642 88.108 179.281C88.3668 179.551 88.6821 179.76 89.0314 179.893C89.3806 180.027 89.755 180.081 90.1277 180.052Z" fill="white"/>
<path d="M98.6637 174.806C98.3092 174.825 97.9545 174.774 97.6198 174.655C97.2851 174.537 96.977 174.354 96.7133 174.116C96.468 173.873 96.2768 173.581 96.1523 173.259C96.0279 172.937 95.9729 172.592 95.9911 172.247V172.133C95.9718 171.787 96.0261 171.441 96.1506 171.117C96.2751 170.793 96.4669 170.5 96.7133 170.256C97.2646 169.815 97.9496 169.575 98.6555 169.575C99.3615 169.575 100.046 169.815 100.598 170.256C100.844 170.5 101.036 170.793 101.16 171.117C101.285 171.441 101.339 171.787 101.32 172.133V172.247C101.339 172.591 101.286 172.936 101.162 173.258C101.039 173.58 100.85 173.872 100.606 174.116C100.344 174.354 100.038 174.538 99.7041 174.656C99.3707 174.775 99.017 174.825 98.6637 174.806ZM97.8476 181.595L96.7705 180.755L105.853 169.562L106.918 170.428L97.8476 181.595ZM98.6637 173.643C98.8351 173.651 99.0063 173.622 99.1655 173.558C99.3247 173.494 99.4681 173.396 99.5858 173.271C99.8193 173.003 99.9406 172.656 99.9245 172.3V172.068C99.9421 171.714 99.8206 171.367 99.5858 171.101C99.4659 170.979 99.3219 170.884 99.1631 170.822C99.0043 170.759 98.8342 170.731 98.6637 170.738C98.4905 170.728 98.3172 170.756 98.1554 170.818C97.9936 170.881 97.847 170.977 97.7252 171.101C97.4905 171.367 97.3689 171.714 97.3866 172.068V172.3C97.3704 172.656 97.4917 173.003 97.7252 173.271C97.8463 173.396 97.9926 173.494 98.1544 173.558C98.3162 173.622 98.4899 173.651 98.6637 173.643ZM105.025 181.571C104.671 181.59 104.318 181.54 103.984 181.421C103.651 181.303 103.344 181.119 103.083 180.881C102.838 180.638 102.648 180.347 102.525 180.025C102.401 179.704 102.346 179.36 102.364 179.016V178.914C102.347 178.568 102.401 178.221 102.525 177.896C102.649 177.572 102.839 177.276 103.083 177.029C103.345 176.792 103.652 176.609 103.985 176.491C104.318 176.372 104.672 176.321 105.025 176.34C105.737 176.307 106.435 176.554 106.967 177.029C107.214 177.274 107.407 177.569 107.533 177.894C107.659 178.219 107.715 178.566 107.697 178.914V179.016C107.715 179.36 107.66 179.704 107.535 180.026C107.411 180.347 107.22 180.639 106.975 180.881C106.442 181.36 105.741 181.608 105.025 181.571ZM105.025 180.408C105.198 180.417 105.371 180.39 105.533 180.327C105.695 180.264 105.841 180.168 105.963 180.045C106.196 179.779 106.318 179.434 106.302 179.082V178.849C106.32 178.491 106.198 178.14 105.963 177.87C105.842 177.746 105.695 177.648 105.534 177.585C105.372 177.522 105.198 177.494 105.025 177.503C104.854 177.494 104.683 177.522 104.524 177.586C104.364 177.649 104.221 177.746 104.103 177.87C103.865 178.139 103.741 178.49 103.76 178.849V179.082C103.744 179.435 103.867 179.781 104.103 180.045C104.222 180.166 104.366 180.261 104.525 180.322C104.684 180.383 104.855 180.41 105.025 180.4V180.408Z" fill="white"/>
</svg>
